<svg xmlns="http://www.w3.org/2000/svg" viewBox="0 0 128 128">
  <defs>
    <linearGradient id="g" x1="0%" y1="0%" x2="100%" y2="100%">
      <stop offset="0%" style="stop-color:#3b82f6"/>
      <stop offset="100%" style="stop-color:#06b6d4"/>
    </linearGradient>
  </defs>
  <rect width="128" height="128" rx="24" fill="#0f172a"/>
  <!-- Film frame -->
  <rect x="16" y="16" width="96" height="96" rx="10" fill="none" stroke="url(#g)" stroke-width="4"/>
  <!-- Sprocket holes -->
  <rect x="22" y="24" width="10" height="8" rx="2" fill="#3b82f6" opacity="0.5"/>
  <rect x="22" y="40" width="10" height="8" rx="2" fill="#3b82f6" opacity="0.5"/>
  <rect x="22" y="56" width="10" height="8" rx="2" fill="#3b82f6" opacity="0.5"/>
  <rect x="22" y="72" width="10" height="8" rx="2" fill="#3b82f6" opacity="0.5"/>
  <rect x="22" y="88" width="10" height="8" rx="2" fill="#3b82f6" opacity="0.5"/>
  <rect x="96" y="24" width="10" height="8" rx="2" fill="#3b82f6" opacity="0.5"/>
  <rect x="96" y="40" width="10" height="8" rx="2" fill="#3b82f6" opacity="0.5"/>
  <rect x="96" y="56" width="10" height="8" rx="2" fill="#3b82f6" opacity="0.5"/>
  <rect x="96" y="72" width="10" height="8" rx="2" fill="#3b82f6" opacity="0.5"/>
  <rect x="96" y="88" width="10" height="8" rx="2" fill="#3b82f6" opacity="0.5"/>
  <!-- Medical cross -->
  <rect x="54" y="32" width="20" height="64" rx="4" fill="url(#g)"/>
  <rect x="36" y="50" width="56" height="20" rx="4" fill="url(#g)"/>
</svg>
